<?xml version="1.0" encoding="UTF-8"?><svg id="Calque_2" xmlns="http://www.w3.org/2000/svg" xmlns:xlink="http://www.w3.org/1999/xlink" viewBox="0 0 43.34 33.13"><defs><style>.cls-1{fill:#fff;}.cls-2{fill:url(#Dégradé_sans_nom_14);}</style><linearGradient id="Dégradé_sans_nom_14" x1="1.51" y1="31.03" x2="40.46" y2="11.28" gradientUnits="userSpaceOnUse"><stop offset=".13" stop-color="#fbd347"/><stop offset=".37" stop-color="#db3832"/><stop offset=".75" stop-color="#7e398e"/><stop offset=".82" stop-color="#1791ce"/><stop offset="1" stop-color="#23a758"/></linearGradient></defs><g id="Calque_1-2"><g><path class="cls-2" d="M43.13,30.17l-8.33-17.46c-.14-.3-.11-.64,.08-.92,.15-.21,.39-.34,.64-.37l2.96-.43c1.02-.15,1.77-1.02,1.77-2.05v-2.01c0-.66-.31-1.25-.8-1.63l-2.76-2.32c-.27-.39-.7-.68-1.19-.75L20.26,.02c-.66-.1-1.29,.17-1.69,.71-.4,.54-.46,1.22-.17,1.82l8.07,16.9c.18,.37,.15,.8-.07,1.15-.06,.09-.12,.17-.19,.24l-5-9.44c-.09-.17-.2-.32-.33-.46h0s-.08-.06-.08-.06c-.06-.06-.13-.11-.19-.17l-2.78-2.39c-.33-.42-.84-.68-1.39-.68-1.96,0-4.29,0-6.64,0-2.1,0-4.22,0-6.12,0h0c-.63,0-1.2,.32-1.52,.86-.32,.54-.34,1.19-.05,1.75l2.71,5.12c.26,.5,.14,1.12-.29,1.48l-3.88,3.21c-.76,.62-.86,1.75-.24,2.5l5.52,6.68c.16,.19,.36,.35,.57,.46l3.34,2.67c.6,.48,1.35,.74,2.12,.74h1.57c1.88,0,3.82,0,4.54,0h7.83c1.96,0,4.17,0,6.41,0,2.3,0,4.62,0,6.72,0,.75,0,1.48,0,2.16,0,.65,0,1.29-.27,1.69-.78,.5-.63,.58-1.46,.24-2.17Z"/><path class="cls-1" d="M22.94,29.32c1.99,0,4.25,0,6.52,0,3.12,0,6.28,0,8.87,0,.41,0,.79-.21,1.01-.56,.22-.35,.25-.78,.07-1.15L31.08,10.15c-.25-.52-.23-1.1,.04-1.6,.27-.5,.75-.84,1.31-.92l2.99-.43c.58-.08,1.02-.59,1.02-1.19V3.99c0-.59-.44-1.1-1.03-1.19L20.18,.59c-.44-.06-.87,.11-1.14,.47s-.31,.82-.12,1.23l8.07,16.9c.26,.55,.23,1.19-.1,1.71-.33,.52-.89,.83-1.5,.83-.66,0-1.26-.36-1.57-.95l-6.31-11.93c-.21-.39-.61-.64-1.06-.64-1.96,0-4.29,0-6.64,0-2.1,0-4.22,0-6.12,0h0c-.42,0-.81,.22-1.03,.58-.22,.36-.23,.8-.03,1.18l2.71,5.12c.39,.74,.21,1.67-.44,2.2l-3.88,3.21c-.51,.42-.58,1.18-.16,1.69l5.52,6.68c.23,.28,.56,.43,.92,.43h3.05c1.95,0,4.04,0,4.79,0h6.78c.33,0,.67,0,1.02,0Z"/></g></g></svg>