<?xml version="1.0" encoding="utf-8"?>
<!-- Generator: Adobe Illustrator 27.8.1, SVG Export Plug-In . SVG Version: 6.00 Build 0)  -->
<svg version="1.1" id="Calque_2_00000087375042114739941890000006731941266261611455_"
	 xmlns="http://www.w3.org/2000/svg" xmlns:xlink="http://www.w3.org/1999/xlink" x="0px" y="0px" viewBox="0 0 201.8 58.8"
	 style="enable-background:new 0 0 201.8 58.8;" xml:space="preserve">
<style type="text/css">
	.st0{fill:#FFFFFF;}
	.st1{fill:#121212;}
	.st2{fill:url(#SVGID_1_);}
</style>
<g id="Calque_1-2">
	<g>
		<path class="st0" d="M79.8,39.1c-0.5,0-1,0-1.5-0.1c-0.5-0.1-0.9-0.3-1.4-0.5c-0.4-0.3-0.8-0.7-1-1.2h-0.2l-0.1,1.6h-4.1v-20h4.3
			v7.7H76c0.3-0.5,0.6-0.8,1-1c0.4-0.2,0.8-0.4,1.3-0.5c0.5-0.1,1-0.1,1.5-0.1c0.8,0,1.5,0.1,2.1,0.4s1,0.6,1.4,1.1
			c0.4,0.5,0.6,1.2,0.8,2.2s0.3,2.1,0.3,3.5s-0.1,2.5-0.3,3.5c-0.2,0.9-0.4,1.6-0.8,2.2c-0.4,0.5-0.8,0.9-1.4,1.1
			C81.2,39,80.6,39.2,79.8,39.1L79.8,39.1z M77.8,35.6c0.5,0,0.9,0,1.2-0.1s0.5-0.2,0.6-0.4s0.2-0.6,0.3-1s0.1-1.1,0.1-2
			s0-1.5-0.1-1.9s-0.1-0.8-0.3-1s-0.3-0.4-0.6-0.4c-0.3-0.1-0.7-0.1-1.2-0.1s-0.9,0-1.1,0.1s-0.5,0.3-0.6,0.6
			c-0.1,0.3-0.2,0.7-0.3,1.1s-0.1,1-0.1,1.7s0,1.2,0.1,1.7s0.1,0.8,0.3,1.1c0.1,0.3,0.3,0.5,0.6,0.6S77.4,35.6,77.8,35.6L77.8,35.6z
			"/>
		<path class="st0" d="M87.2,38.9v-20h4.4v20H87.2z"/>
		<path class="st0" d="M100.9,39.1c-1.2,0-2.2-0.1-3.1-0.2s-1.4-0.4-1.9-0.7c-0.5-0.3-0.8-0.8-1-1.3c-0.2-0.5-0.3-1.2-0.4-2
			c-0.1-0.8-0.1-1.8-0.1-2.9s0-2.1,0.1-2.9s0.2-1.5,0.4-2s0.6-1,1-1.3c0.5-0.3,1.1-0.5,1.9-0.7s1.8-0.2,3.1-0.2s2.3,0.1,3.1,0.2
			c0.8,0.1,1.4,0.4,1.9,0.7c0.5,0.3,0.8,0.8,1,1.3s0.4,1.2,0.4,2s0.1,1.8,0.1,2.9s0,2-0.1,2.9s-0.2,1.5-0.4,2c-0.2,0.5-0.6,1-1,1.3
			s-1.1,0.5-1.9,0.7C103.2,39.1,102.2,39.1,100.9,39.1z M100.9,35.9c0.5,0,1,0,1.3-0.1s0.5-0.3,0.7-0.5c0.1-0.2,0.2-0.6,0.2-1.2
			s0-1.2,0-2s0-1.6,0-2.1s-0.1-0.9-0.2-1.1c-0.1-0.2-0.3-0.4-0.7-0.5c-0.3-0.1-0.7-0.1-1.3-0.1s-1,0-1.3,0.1s-0.5,0.2-0.6,0.5
			c-0.1,0.2-0.2,0.6-0.2,1.1s0,1.2,0,2.1c0,0.9,0,1.5,0,2s0.1,0.9,0.2,1.2c0.1,0.2,0.3,0.4,0.6,0.5C100,35.8,100.4,35.9,100.9,35.9z
			"/>
		<path class="st0" d="M115.9,39.1c-1.2,0-2.1-0.1-2.8-0.3c-0.7-0.2-1.3-0.5-1.8-0.9s-0.8-0.9-0.9-1.4c-0.2-0.6-0.3-1.2-0.4-2
			s-0.1-1.6-0.1-2.5s0-1.7,0.1-2.4s0.2-1.4,0.4-2s0.5-1.1,1-1.5s1-0.7,1.7-0.9s1.7-0.3,2.8-0.3c0.7,0,1.4,0,2.2,0.1
			c0.7,0.1,1.4,0.2,1.9,0.3v3.1c-0.4-0.1-0.8-0.1-1.4-0.2c-0.6,0-1.1-0.1-1.6-0.1c-0.6,0-1.1,0-1.5,0.2c-0.4,0.1-0.7,0.3-0.8,0.5
			c-0.2,0.3-0.3,0.6-0.3,1.1c-0.1,0.5-0.1,1.2-0.1,2s0,1.5,0.1,2c0.1,0.5,0.2,0.9,0.4,1.2s0.4,0.5,0.8,0.5s0.9,0.2,1.5,0.2
			c0.4,0,0.9,0,1.4,0c0.6,0,1.1-0.1,1.6-0.2v3.1c-0.6,0.1-1.3,0.2-2,0.3S116.6,39.1,115.9,39.1L115.9,39.1z"/>
		<path class="st0" d="M122.8,38.9v-20h4.3v11.5h0.8l3.6-5.2h4.7l-4.7,6.6l4.8,7.2h-4.8l-3.5-5.2h-0.8v5.2L122.8,38.9L122.8,38.9z"
			/>
		<path class="st0" d="M143.3,39.1c-0.6,0-1.2,0-1.9,0c-0.7,0-1.3-0.1-1.9-0.1s-1.2-0.1-1.7-0.2v-3c0.3,0,0.6,0.1,1,0.1
			c0.4,0,0.8,0,1.1,0.1c0.4,0,0.8,0,1.1,0c0.4,0,0.7,0,1,0c0.9,0,1.5,0,1.9-0.1c0.4-0.1,0.6-0.2,0.7-0.3c0.1-0.2,0.1-0.4,0.1-0.7
			s0-0.5-0.1-0.6s-0.2-0.2-0.4-0.3s-0.5-0.1-1-0.2l-3.2-0.4c-0.8-0.1-1.4-0.3-1.8-0.7s-0.7-0.8-0.8-1.4c-0.1-0.6-0.2-1.3-0.2-2.1
			c0-1,0.1-1.7,0.4-2.2s0.7-1,1.2-1.2c0.5-0.3,1.1-0.5,1.8-0.5s1.5-0.1,2.3-0.1c0.6,0,1.1,0,1.8,0s1.2,0.1,1.8,0.1s1,0.1,1.4,0.2v3
			c-0.4,0-0.9-0.1-1.4-0.1s-1-0.1-1.4-0.1c-0.4,0-0.8,0-1.1,0c-0.7,0-1.3,0-1.7,0.1c-0.4,0-0.6,0.1-0.8,0.3
			c-0.1,0.1-0.2,0.4-0.2,0.7c0,0.3,0,0.5,0.1,0.6c0.1,0.1,0.2,0.2,0.3,0.3c0.2,0,0.4,0.1,0.8,0.2l3.2,0.4c0.6,0.1,1.2,0.2,1.6,0.4
			c0.4,0.2,0.8,0.6,1,1.2c0.2,0.6,0.3,1.4,0.3,2.5c0,1-0.1,1.8-0.4,2.4s-0.6,1-1.1,1.3c-0.5,0.3-1.1,0.5-1.7,0.6
			C144.9,39.1,144.1,39.2,143.3,39.1L143.3,39.1z"/>
		<path class="st0" d="M153.8,38.9l-3.5-13.7h4.3l2,9.4h0.2l2.4-9.4h4l2.5,9.4h0.2l1.9-9.4h4.2l-3.5,13.7h-5.3l-1.9-7.2H161
			l-1.9,7.2H153.8L153.8,38.9z"/>
		<path class="st0" d="M177.2,39.1c-0.9,0-1.6-0.1-2.2-0.4s-1-0.7-1.3-1.3s-0.4-1.4-0.4-2.4c0-1,0.1-1.9,0.4-2.5
			c0.2-0.6,0.7-1.1,1.3-1.3c0.6-0.3,1.5-0.4,2.6-0.4c0.2,0,0.4,0,0.7,0c0.3,0,0.6,0,1,0c0.4,0,0.8,0,1.1,0c0.4,0,0.7,0,1,0v-0.5
			c0-0.5,0-0.9-0.1-1.2c-0.1-0.3-0.2-0.5-0.5-0.6c-0.2-0.1-0.6-0.2-1-0.3s-1,0-1.8,0c-0.4,0-0.8,0-1.4,0s-1,0-1.5,0.1
			s-0.9,0.1-1.2,0.1v-3c0.7-0.1,1.6-0.3,2.5-0.3c0.9-0.1,1.9-0.1,2.9-0.1c1.1,0,2.1,0.1,2.9,0.2c0.8,0.1,1.4,0.4,1.9,0.7
			s0.8,0.7,1,1.1c0.2,0.5,0.4,1,0.4,1.6s0.1,1.3,0.1,2.1v8.3h-4.1l-0.1-1.6h-0.2c-0.3,0.6-0.7,1-1.2,1.2c-0.5,0.3-0.9,0.4-1.4,0.5
			S177.7,39.2,177.2,39.1L177.2,39.1z M179.3,36c0.3,0,0.6,0,0.8,0c0.2,0,0.4-0.1,0.6-0.2s0.3-0.3,0.4-0.5c0.1-0.2,0.2-0.4,0.2-0.7
			c0.1-0.3,0.1-0.6,0.1-1v-0.5H179c-0.5,0-0.8,0-1.1,0.1s-0.4,0.2-0.5,0.4s-0.1,0.6-0.1,1c0,0.4,0,0.7,0.1,0.9
			c0.1,0.2,0.3,0.3,0.6,0.4S178.7,36.1,179.3,36L179.3,36z"/>
		<path class="st0" d="M189.2,38.9V25.2h4.1l0.1,1.7h0.2c0.3-0.5,0.6-0.9,1-1.1c0.4-0.3,0.9-0.5,1.4-0.6s1.1-0.2,1.6-0.2
			c0.9,0,1.6,0.1,2.2,0.4s1,0.6,1.2,1c0.3,0.5,0.5,1,0.6,1.7c0.1,0.7,0.1,1.4,0.1,2.3v8.6h-4.3v-7.3c0-0.7,0-1.3-0.1-1.7
			c0-0.4-0.1-0.7-0.2-0.9c-0.1-0.2-0.3-0.3-0.6-0.4c-0.3,0-0.6-0.1-1-0.1c-0.5,0-0.8,0-1.1,0.2c-0.3,0.1-0.5,0.3-0.6,0.5
			c-0.1,0.2-0.2,0.6-0.3,1s-0.1,0.9-0.1,1.6v7.1L189.2,38.9L189.2,38.9z"/>
	</g>
	<path class="st1" d="M8.9,0.5h41c4.6,0,8.4,3.7,8.4,8.4v41c0,4.6-3.7,8.4-8.4,8.4h-41c-4.6,0-8.4-3.7-8.4-8.4v-41
		C0.5,4.2,4.2,0.5,8.9,0.5z"/>
	<g>
		
			<linearGradient id="SVGID_1_" gradientUnits="userSpaceOnUse" x1="12.7507" y1="16.7183" x2="44.8607" y2="32.9983" gradientTransform="matrix(1 0 0 -1 0 58)">
			<stop  offset="0.13" style="stop-color:#FBD347"/>
			<stop  offset="0.37" style="stop-color:#DB3832"/>
			<stop  offset="0.75" style="stop-color:#7E398E"/>
			<stop  offset="0.82" style="stop-color:#1791CE"/>
			<stop  offset="1" style="stop-color:#23A758"/>
		</linearGradient>
		<path class="st2" d="M47.1,40.6l-6.9-14.4c-0.1-0.2-0.1-0.5,0.1-0.8c0.1-0.2,0.3-0.3,0.5-0.3l2.4-0.4c0.8-0.1,1.5-0.8,1.5-1.7
			v-1.6c0-0.5-0.3-1-0.7-1.4l-2.3-1.9c-0.2-0.3-0.6-0.6-1-0.6l-12.6-1.8c-0.5-0.1-1.1,0.1-1.4,0.6c-0.3,0.4-0.4,1-0.1,1.5l6.7,13.9
			c0.2,0.3,0.1,0.7-0.1,0.9c0,0.1-0.1,0.1-0.2,0.2L29,25.1c-0.1-0.1-0.2-0.3-0.3-0.4l0,0l-0.1,0c0,0-0.1-0.1-0.2-0.1l-2.3-2
			c-0.3-0.4-0.7-0.6-1.1-0.6c-1.6,0-3.5,0-5.5,0c-1.7,0-3.5,0-5,0l0,0c-0.5,0-1,0.3-1.2,0.7c-0.3,0.4-0.3,1,0,1.4l2.2,4.2
			c0.2,0.4,0.1,0.9-0.2,1.2l-3.2,2.6c-0.6,0.5-0.7,1.4-0.2,2.1l4.6,5.5c0.1,0.2,0.3,0.3,0.5,0.4l2.8,2.2c0.5,0.4,1.1,0.6,1.8,0.6
			h1.3c1.5,0,3.1,0,3.7,0h6.4c1.6,0,3.4,0,5.3,0c1.9,0,3.8,0,5.5,0c0.6,0,1.2,0,1.8,0c0.5,0,1.1-0.2,1.4-0.7
			C47.3,41.8,47.3,41.1,47.1,40.6L47.1,40.6z"/>
		<path class="st0" d="M30.4,39.9c1.6,0,3.5,0,5.4,0c2.6,0,5.2,0,7.3,0c0.3,0,0.7-0.2,0.8-0.5c0.2-0.3,0.2-0.6,0.1-1l-6.9-14.4
			c-0.2-0.4-0.2-0.9,0-1.3c0.2-0.4,0.6-0.7,1.1-0.8l2.5-0.4c0.5-0.1,0.8-0.5,0.8-1V19c0-0.5-0.4-0.9-0.8-1l-12.6-1.8
			c-0.4,0-0.7,0.1-0.9,0.4s-0.3,0.7-0.1,1l6.7,13.9c0.2,0.5,0.2,1-0.1,1.4s-0.7,0.7-1.2,0.7c-0.5,0-1-0.3-1.3-0.8L25.9,23
			c-0.2-0.3-0.5-0.5-0.9-0.5c-1.6,0-3.5,0-5.5,0c-1.7,0-3.5,0-5.1,0l0,0c-0.4,0-0.7,0.2-0.8,0.5s-0.2,0.7,0,1l2.2,4.2
			c0.3,0.6,0.2,1.4-0.4,1.8l-3.2,2.6c-0.4,0.3-0.5,1-0.1,1.4l4.6,5.5c0.2,0.2,0.5,0.4,0.8,0.4h2.5c1.6,0,3.3,0,4,0h5.6
			C29.9,39.9,30.1,39.9,30.4,39.9L30.4,39.9z"/>
	</g>
</g>
</svg>
